PathFileType	4	(X/Y/Z)	C:/Users/opensim2020/Desktop/walking_exp_matlab/subject06_walking23_straight_04.trc	
DataRate	CameraRate	NumFrames	NumMarkers	Units	OrigDataRate	OrigDataStartFrame	OrigNumFrames	
100.00	100.00	6	45	mm	100.00	2302	145	
Frame#	Time	LFHD			RFHD			LBHD			RBHD			C7			T10			CLAV			STRN			RBAK			LSHO			LUPA			LELB			LFRM			LWRA			LWRB			LFIN			RSHO			RUPA			RELB			RFRM			RWRA			RWRB			RFIN			LASI			RASI			LPSI			RPSI			LTHI			LKNE			LTIB			LANK			LHEE			LTOE			RTHI			RKNE			RTIB			RANK			RHEE			RTOE			*39			*40			*41			*42			*43			*44			
		X1	Y1	Z1	X2	Y2	Z2	X3	Y3	Z3	X4	Y4	Z4	X5	Y5	Z5	X6	Y6	Z6	X7	Y7	Z7	X8	Y8	Z8	X9	Y9	Z9	X10	Y10	Z10	X11	Y11	Z11	X12	Y12	Z12	X13	Y13	Z13	X14	Y14	Z14	X15	Y15	Z15	X16	Y16	Z16	X17	Y17	Z17	X18	Y18	Z18	X19	Y19	Z19	X20	Y20	Z20	X21	Y21	Z21	X22	Y22	Z22	X23	Y23	Z23	X24	Y24	Z24	X25	Y25	Z25	X26	Y26	Z26	X27	Y27	Z27	X28	Y28	Z28	X29	Y29	Z29	X30	Y30	Z30	X31	Y31	Z31	X32	Y32	Z32	X33	Y33	Z33	X34	Y34	Z34	X35	Y35	Z35	X36	Y36	Z36	X37	Y37	Z37	X38	Y38	Z38	X39	Y39	Z39	X40	Y40	Z40	X41	Y41	Z41	X42	Y42	Z42	X43	Y43	Z43	X44	Y44	Z44	X45	Y45	Z45	

37	0.360	-874.73248	311.62698	1651.58069	-1007.15839	304.68445	1652.09216	-886.63879	444.11240	1597.19714	-1015.31671	435.48425	1602.32361	-946.24146	440.84399	1443.16235	-961.89105	470.38037	1113.87463	-954.22491	327.85587	1369.22266	-957.92603	284.34045	1194.63940	-1028.29504	514.58289	1274.14258	-788.97418	376.74136	1395.84692	-719.25555	412.29996	1198.00146	-712.54114	444.60291	1089.28064	-690.54694	455.39096	939.89685	-732.88000	425.50092	813.31140	-692.62598	483.39450	824.91437	-696.80597	469.36313	733.57562	-1111.34644	386.48706	1405.94592	-1207.24414	431.98233	1215.16956	-1223.92078	422.39667	1095.78821	-1239.69031	370.54260	990.47913	-1201.00830	261.60565	890.83527	-1241.40930	310.44614	867.79285	-1240.22888	245.10759	815.02777	-867.15033	281.15201	963.65143	-1085.93433	304.24582	958.40198	-879.84637	443.09625	982.60944	-1047.02234	452.43384	976.21069	-806.86169	298.98535	649.13586	-837.07800	267.70264	490.30615	-850.11444	292.37286	232.95853	-899.48859	293.60083	63.59312	-943.16998	335.23398	49.85754	-909.26953	149.43158	36.47699	-1146.25610	334.26437	616.90631	-1139.47351	309.16360	492.18707	-1122.66846	498.80826	327.46136	-1069.37988	651.56335	231.42039	-1020.21735	681.93616	253.31187	-1070.88379	624.98010	75.49338	-935.72876	408.76483	1694.52185															 
38	0.370	-874.64307	298.06595	1653.32568	-1007.05042	291.28232	1653.83093	-886.15063	430.67734	1598.98560	-1015.01782	422.10733	1604.01172	-945.59656	427.37012	1445.05603	-960.41455	457.24786	1115.55542	-954.23956	314.69534	1370.83630	-957.66394	271.34442	1196.24207	-1026.26477	501.94751	1275.66504	-788.59674	362.22702	1397.52820	-718.18872	395.30603	1199.17615	-710.73462	426.17795	1090.03662	-688.68176	434.54315	940.47333	-732.80798	403.22974	814.58606	-690.86072	460.28738	824.84448	-695.90991	444.32928	733.93256	-1111.15381	374.11096	1407.02966	-1206.29614	421.72723	1216.15015	-1223.18176	413.09171	1096.49365	-1238.78687	362.87872	990.17133	-1200.03247	255.62096	888.60443	-1240.67700	304.85199	866.50116	-1238.71680	240.51326	812.12048	-866.88391	267.98697	964.80585	-1085.76172	291.13290	960.47064	-878.77020	429.85956	984.15466	-1045.92896	439.90366	977.70990	-807.05109	289.50076	649.94043	-836.96771	261.77573	490.22739	-849.83313	290.19138	233.11246	-899.75629	293.50772	63.76373	-943.37762	335.58948	50.75235	-909.45892	148.97476	36.20779	-1145.97815	314.59106	620.12512	-1139.37329	285.45853	496.24619	-1122.33704	473.09357	331.33258	-1069.34851	625.20117	233.90515	-1020.35742	657.56696	254.00436	-1072.58044	592.05591	79.46044	-935.56342	395.39236	1696.25464															 
39	0.380	-874.69739	284.50784	1654.99719	-1007.12024	277.95670	1655.39551	-885.91284	417.01144	1600.54053	-1014.76984	408.71213	1605.48706	-944.97266	413.99368	1446.70203	-958.99725	444.22598	1117.07678	-954.23053	301.47794	1372.29846	-957.43359	258.53848	1197.75659	-1024.24658	489.24136	1277.08032	-788.26080	347.90753	1399.13147	-717.27631	378.20798	1200.28027	-709.01862	407.47104	1090.69763	-687.03314	412.88278	940.93848	-732.57513	379.89706	815.89453	-689.67780	436.34253	824.65680	-694.97491	418.75290	734.33899	-1110.92725	361.76489	1408.02734	-1205.29285	411.49020	1217.21960	-1222.32568	403.78577	1097.26941	-1237.92554	355.46106	989.86035	-1199.12952	249.98660	886.18066	-1240.06738	299.65857	865.14465	-1237.57117	236.50237	809.15906	-866.58240	254.95920	965.92584	-1085.33289	278.37469	962.49329	-877.81653	416.87512	985.65295	-1044.91858	427.23199	979.23450	-807.20319	280.41086	650.67535	-836.84009	255.87840	490.08276	-849.67236	287.08173	233.16969	-899.96436	293.07181	63.99223	-943.37885	335.38922	51.12752	-909.66284	148.57143	35.94083	-1145.69446	295.08060	623.61835	-1139.32690	261.89554	500.67358	-1122.16284	447.23935	334.47208	-1069.60620	597.93439	234.25487	-1020.71509	631.81732	252.78217	-1073.74878	558.58441	81.73023	-935.39154	381.94272	1697.86035															 
40	0.390	-874.80304	270.95154	1656.51855	-1007.29199	264.68201	1656.70325	-885.93738	403.53818	1602.14246	-1014.58386	395.38354	1606.82275	-944.39185	400.74091	1448.19592	-957.57745	431.24838	1118.52783	-954.24146	288.38226	1373.63147	-957.22650	245.68675	1199.14355	-1022.37012	476.60446	1278.52332	-788.01483	333.74396	1400.64001	-716.49048	361.13260	1201.29968	-707.41339	388.59827	1091.20020	-685.77838	390.77768	941.33887	-732.00891	356.43668	817.13538	-688.18805	412.05936	824.68292	-693.85736	392.38446	734.84387	-1110.71790	349.41104	1409.08984	-1204.01184	401.36017	1218.25525	-1221.24951	394.48694	1098.12305	-1236.99121	348.15768	989.61340	-1198.38660	244.87267	883.57391	-1239.71204	294.75473	863.74365	-1236.68701	233.02779	806.16547	-866.13293	242.28154	966.96234	-1084.67200	265.51804	964.57428	-876.97217	404.03195	987.01019	-1044.02722	414.44394	980.81561	-807.29663	271.61823	651.20490	-836.62292	250.05234	489.86667	-849.65161	283.48328	233.12271	-900.17584	292.58954	64.09532	-943.43054	334.95700	51.42614	-909.91693	148.19380	35.61938	-1145.42017	275.74631	627.21936	-1138.99817	238.85378	505.27032	-1122.07312	420.97189	336.39282	-1069.70911	569.91107	232.45235	-1020.77173	605.28107	249.70622	-1074.36694	524.50861	82.37206	-935.48077	368.34686	1699.26355															 
41	0.400	-875.01776	257.35468	1657.84058	-1007.55695	251.37769	1657.76062	-885.75836	390.03992	1603.63159	-1014.47284	382.10422	1608.01953	-943.80298	387.61130	1449.48669	-956.17755	418.32449	1119.85352	-954.21002	275.47617	1374.76807	-957.11194	232.87773	1200.37964	-1020.66199	464.00156	1279.83740	-787.76038	319.82648	1402.01843	-715.86615	344.13257	1202.29199	-705.97656	369.74478	1091.94006	-684.76862	368.31018	941.90643	-731.77173	332.23184	818.55804	-686.74915	387.30063	824.74561	-692.66516	365.34479	735.54352	-1110.38513	337.10416	1409.96753	-1202.67517	391.33139	1219.30103	-1220.03674	385.09637	1099.02075	-1236.02502	340.91501	989.37891	-1198.00684	239.96411	880.92566	-1239.08252	290.54428	862.16986	-1236.03357	229.93771	803.08728	-865.55298	229.77460	967.89191	-1083.97656	252.62326	966.42841	-876.27679	391.27942	988.22357	-1043.30579	401.63181	982.38641	-807.16803	262.81934	651.56110	-836.35309	244.32462	489.58871	-849.60620	280.17740	233.01569	-899.94037	291.95969	64.53946	-943.07819	334.84909	52.01463	-909.94312	147.86118	35.32277	-1144.97864	256.45920	630.54034	-1138.44519	216.34984	509.93298	-1121.89795	394.66617	337.15237	-1069.64844	541.03265	229.05838	-1020.78839	577.96783	245.03488	-1074.73608	489.46869	81.97287	-935.57733	354.99609	1700.58032															 
42	0.410	-875.37238	243.79303	1659.00110	-1007.86005	238.10635	1658.61597	-885.65881	376.59473	1604.94531	-1014.40680	368.95966	1609.11731	-943.22681	374.47571	1450.61877	-954.98633	405.49677	1121.13489	-954.12598	262.58527	1375.77832	-956.94086	220.14287	1201.40100	-1019.28705	451.43115	1281.15381	-787.53497	306.09830	1403.30481	-715.31726	327.33618	1203.23547	-704.65765	350.88626	1092.50269	-683.75116	345.85745	942.47778	-731.24219	307.91818	820.03241	-685.43640	362.31281	824.88879	-691.42633	337.77325	736.43787	-1110.05664	324.93103	1410.87500	-1201.44519	381.02429	1220.33667	-1218.63550	375.66531	1099.90063	-1235.00232	333.75897	989.23383	-1197.79639	235.21622	878.08740	-1238.70972	286.77603	860.82574	-1235.83557	227.38191	800.05640	-864.48242	216.91342	968.84473	-1083.04834	239.51460	968.27081	-875.73688	378.93347	989.34698	-1042.82361	388.72589	983.94592	-807.17212	254.52911	651.77191	-835.90356	238.88205	489.22327	-849.59528	277.84348	233.27094	-899.92218	291.58624	64.80560	-943.08990	334.65094	52.63361	-909.86151	147.63058	35.11811	-1144.71912	237.64958	633.90009	-1137.84717	194.27507	514.43604	-1121.61145	368.24756	336.76294	-1069.82410	511.98901	224.58672	-1020.94379	549.90149	238.91153	-1074.57910	453.97318	80.34121	-935.67139	341.42380	1701.79358															 
